/* XPM */
static char *result[] = {
/* columns rows colors chars-per-pixel */
"50 50 151 2 ",
"   c #290606",
".  c #2B0606",
"X  c #2C0606",
"o  c #250C0C",
"O  c #2B0B0A",
"+  c #310A09",
"@  c #340E0D",
"#  c #370E0D",
"$  c #380F0E",
"%  c #321010",
"&  c #331112",
"*  c #3D1414",
"=  c #3E1414",
"-  c #292501",
";  c #322E00",
":  c #4F0F0F",
">  c #530D0D",
",  c #451417",
"<  c #4E1919",
"1  c #5A1615",
"2  c #5A1B1A",
"3  c #6D1B19",
"4  c #701111",
"5  c #751515",
"6  c #7E1716",
"7  c #761817",
"8  c #583B00",
"9  c #65291C",
"0  c #7F201D",
"q  c #71341C",
"w  c #4D4700",
"e  c #4A4A00",
"r  c #6B6200",
"t  c #726800",
"y  c #746B00",
"u  c #821515",
"i  c #8E1919",
"p  c #991717",
"a  c #9E1A1A",
"s  c #A41C1B",
"d  c #A51C1B",
"f  c #B61B1B",
"g  c #B61C1C",
"h  c #B71C1C",
"j  c #B81C1C",
"k  c #B81D1D",
"l  c #BB1E1E",
"z  c #BB1F1E",
"x  c #BC1F1F",
"c  c #80201D",
"v  c #80201E",
"b  c #82201E",
"n  c #84211F",
"m  c #AC211F",
"M  c #882220",
"N  c #8A2422",
"B  c #8B2D2D",
"V  c #9B2422",
"C  c #912F2F",
"Z  c #922F2F",
"A  c #932F2F",
"S  c #962F2F",
"D  c #A82020",
"F  c #AB2120",
"G  c #A82725",
"H  c #A12927",
"J  c #AF2B28",
"K  c #B32322",
"L  c #B52523",
"P  c #BE2020",
"I  c #BF2B29",
"U  c #BE2C29",
"Y  c #A23232",
"T  c #A73434",
"R  c #BE3636",
"E  c #B13939",
"W  c #C12221",
"Q  c #C22322",
"!  c #C62524",
"~  c #C62624",
"^  c #C72625",
"/  c #C82625",
"(  c #C92625",
")  c #CC2928",
"_  c #CD2928",
"`  c #CA2D2A",
"'  c #D02C29",
"]  c #D02C2A",
"[  c #D12C2A",
"{  c #D32E2B",
"}  c #D52F2D",
"|  c #D62F2D",
" . c #C7312E",
".. c #C7322E",
"X. c #C8322E",
"o. c #C9322E",
"O. c #C8322F",
"+. c #C9322F",
"@. c #D1312E",
"#. c #D7302E",
"$. c #D8312E",
"%. c #DA322F",
"&. c #CA3937",
"*. c #DF3531",
"=. c #DD3A37",
"-. c #D03B39",
";. c #D53B39",
":. c #D63D3B",
">. c #D43C3C",
",. c #D83E3E",
"<. c #E03632",
"1. c #E13632",
"2. c #E03633",
"3. c #E13633",
"4. c #E23633",
"5. c #E23733",
"6. c #E23734",
"7. c #E33834",
"8. c #E43835",
"9. c #E43935",
"0. c #E53935",
"q. c #E63935",
"w. c #E73935",
"e. c #E63A35",
"r. c #E73A36",
"t. c #E13F3C",
"y. c #E93C38",
"u. c #807D00",
"i. c #817E00",
"p. c #8F7F00",
"a. c #DB413F",
"s. c #DC4545",
"d. c #E04646",
"f. c #F24340",
"g. c #F34543",
"h. c #F14644",
"j. c #F44644",
"k. c #8D8200",
"l. c #A79900",
"z. c #B8AF00",
"x. c #BCAD00",
"c. c #B7B000",
"v. c #D2C100",
"b. c #D9CB00",
"n. c #DCD100",
"m. c #E2CF00",
"M. c #E1D300",
"N. c #EEDC00",
"B. c #F2E300",
"V. c #FFEB00",
"C. c None",
/* pixels */
"C.C.C.C.C.C.C.C.C.C.C.C.C.C.C.C.C.C.C.C.C.C.C.C.C.C.C.C.C.C.C.C.C.C.C.C.C.C.C.C.C.C.C.C.C.C.C.C.C.C.",
"C.C.C.C.C.C.C.C.C.C.C.C.C.C.C.C.C.C.C.C.C.C.C.C.C.C.C.C.C.C.C.C.C.C.C.C.C.C.C.C.C.C.C.C.C.C.C.C.C.C.",
"C.C.C.C.C.C.C.C.C.C.C.C.C.C.C.C.C.C.C.C.C.C.C.C.C.C.C.C.C.C.C.C.C.C.C.C.C.C.C.C.C.C.C.C.C.C.C.C.C.C.",
"C.C.C.C.C.C.C.C.C.C.C.C.C.C.C.C.C.C.C.C.C.C.C.C.C.C.C.C.C.C.C.C.C.C.C.C.C.C.C.C.C.C.C.C.C.C.C.C.C.C.",
"C.C.C.C.C.C.C.C.C.C.C.C.C.C.C.C.C.C.C.C.C.C.C.C.C.C.C.C.C.C.C.C.C.C.C.C.C.C.C.C.C.C.C.C.C.C.C.C.C.C.",
"C.C.C.C.C.C.C.C.C.C.C.C.C.C.C.C.C.C.C.C.C.C.C.C.C.C.C.C.C.C.C.C.C.C.C.C.C.C.C.C.C.C.C.C.C.C.C.C.C.C.",
"C.C.C.C.C.C.C.C.C.C.C.C.C.C.C.C.C.C.C.C.C.C.C.C.C.C.C.C.C.C.C.C.C.C.C.C.C.C.C.C.C.C.C.C.C.C.C.C.C.C.",
"C.C.C.C.C.C.C.C.C.C.C.C.C.C.C.C.C.C.C.C.C.C.C.C.C.C.C.C.C.C.C.C.C.C.C.C.C.C.C.C.C.C.C.C.C.C.C.C.C.C.",
"C.C.C.C.C.C.C.C.C.C.C.C.C.C.C.C.C.C.C.C.C.C.C.C.C.C.C.C.C.C.C.C.C.C.C.C.C.C.C.C.C.C.C.C.C.C.C.C.C.C.",
"C.C.C.C.C.C.C.C.C.C.C.C.C.C.C.C.C.C.C.C.C.C.C.C.C.C.C.C.C.C.C.C.C.C.C.C.C.C.C.C.C.C.C.C.C.C.C.C.C.C.",
"C.C.C.C.C.C.C.C.C.C.C.C.C.C.C.C.C.C.C.C.C.C.C.C.C.C.C.C.C.C.C.C.C.C.C.C.C.C.C.C.C.C.C.C.C.C.C.C.C.C.",
"C.C.C.C.C.C.C.C.C.C.C.C.C.C.C.C.C.C.C.C.C.C.C.C.C.# # # # # + C.C.C.C.C.C.C.C.C.C.C.C.C.C.C.C.C.C.C.",
"C.C.C.C.C.C.C.C.8 p.y C.C.C.C.C.C.C.C.C.C.C.% S &.o.X.X.X.+.I 6   C.C.C.C.C.C.C.C.C.C.C.C.C.C.C.C.C.",
"C.C.C.C.C.C.C.C.C.z.M.x.t ; C.C.C.C.C.C.C.o T t.H v n n n n c V F > C.C.C.C.C.C.C.C.C.C.C.C.C.C.C.C.",
"C.C.C.C.C.C.C.C.C.C.i.n.N.v.k.w C.C.C.C.C.Y ;.3 C.C.C.C.C.C.C.O G i C.C.C.C.C.C.C.C.C.C.C.C.C.C.C.C.",
"C.C.C.C.C.C.C.C.C.C.C.e c.B.V.m.r , @ C.& :.b C.C.C.C.C.C.C.C.C.1 L > C.C.C.C.C.C.C.C.C.C.C.C.C.C.C.",
"C.C.C.C.C.C.C.C.C.C.C.C.C.u.b.l.q >.D 7 N =.J 0 b b b b b b b b M @.5 C.C.C.C.C.C.C.C.C.C.C.C.C.C.C.",
"C.C.C.C.C.C.C.C.C.C.C.C.C.C.- 9 ,.) / 4.r.0.q.w.q.q.q.q.q.q.q.q.w.q.` u C.C.C.C.C.C.C.C.C.C.C.C.C.C.",
"C.C.C.C.C.C.C.C.C.C.C.C.C.C.C.R _ ! 3.0.0.0.0.0.0.0.0.0.0.0.0.0.0.0.4.d . C.C.C.C.C.C.C.C.C.C.C.C.C.",
"C.C.C.C.C.C.C.C.C.C.C.C.C.C.C.: K 8.0.0.0.0.0.0.0.0.0.0.0.0.0.0.0.0.1.s . C.C.C.C.C.C.C.C.C.C.C.C.C.",
"C.C.C.C.C.C.C.C.C.C.C.C.C.C.C.C.2 a.y.0.0.q.0.0.0.0.0.0.0.0.0.0.q.q.1.s . C.C.C.C.C.C.C.C.C.C.C.C.C.",
"C.C.C.C.C.C.C.C.C.C.C.C.C.C.C.C.C.A g.0.5.] #.0.0.0.0.0.0.0.0.2.' %.1.s . C.C.C.C.C.C.C.C.C.C.C.C.C.",
"C.C.C.C.C.C.C.C.C.C.C.C.C.C.C.C.C.C j.0.<.P l } 0.0.0.0.0.0.3.~ g ] 4.s . C.C.C.C.C.C.C.C.C.C.C.C.C.",
"C.C.C.C.C.C.C.C.C.C.C.C.C.C.C.C.C.C j.0.0.} l l } 0.0.0.0.3.~ h ~ 3.1.s . C.C.C.C.C.C.C.C.C.C.C.C.C.",
"C.C.C.C.C.C.C.C.C.C.C.C.C.C.C.C.C.C j.0.0.0.} l l } 0.q.3.~ h ~ 3.e.1.s . C.C.C.C.C.C.C.C.C.C.C.C.C.",
"C.C.C.C.C.C.C.C.C.C.C.C.C.C.C.C.C.C j.0.0.0.0.} l l | <.~ h ~ 3.0.0.1.s . C.C.C.C.C.C.C.C.C.C.C.C.C.",
"C.C.C.C.C.C.C.C.C.C.C.C.C.C.C.C.C.C j.0.0.0.0.0.} z x Q h ~ 3.0.0.0.1.s . C.C.C.C.C.C.C.C.C.C.C.C.C.",
"C.C.C.C.C.C.C.C.C.C.C.C.C.C.C.C.C.C j.0.0.0.0.0.0.{ k f Q <.q.0.0.0.1.s . C.C.C.C.C.C.C.C.C.C.C.C.C.",
"C.C.C.C.C.C.C.C.C.C.C.C.C.C.C.C.C.C j.0.0.0.0.0.3.^ j k x | 0.0.0.0.1.s . C.C.C.C.C.C.C.C.C.C.C.C.C.",
"C.C.C.C.C.C.C.C.C.C.C.C.C.C.C.C.C.C j.0.0.0.0.3.~ h ^ { z l } 0.0.0.1.s . C.C.C.C.C.C.C.C.C.C.C.C.C.",
"C.C.C.C.C.C.C.C.C.C.C.C.C.C.C.C.C.C j.0.0.0.3.~ h ~ 3.0.} l l } 0.0.1.s . C.C.C.C.C.C.C.C.C.C.C.C.C.",
"C.C.C.C.C.C.C.C.C.C.C.C.C.C.C.C.C.C j.0.0.3.~ h ~ 3.0.0.0.} l l } 0.1.s . C.C.C.C.C.C.C.C.C.C.C.C.C.",
"C.C.C.C.C.C.C.C.C.C.C.C.C.C.C.C.C.C j.0.6.^ h ~ 3.0.0.0.0.0.} l l $.1.s . C.C.C.C.C.C.C.C.C.C.C.C.C.",
"C.C.C.C.C.C.C.C.C.C.C.C.C.C.C.C.C.Z j.0.<.W ^ 3.0.0.0.0.0.0.0.} P [ 4.d X C.C.C.C.C.C.C.C.C.C.C.C.C.",
"C.C.C.C.C.C.C.C.C.C.C.C.C.C.C.C.C.B h.0.9.<.6.0.0.0.0.0.0.0.0.0.<.7.*.a C.C.C.C.C.C.C.C.C.C.C.C.C.C.",
"C.C.C.C.C.C.C.C.C.C.C.C.C.C.C.C.C.< d.f.r.r.r.w.w.w.w.w.w.w.w.w.r.5.( 4 C.C.C.C.C.C.C.C.C.C.C.C.C.C.",
"C.C.C.C.C.C.C.C.C.C.C.C.C.C.C.C.C.C.E s.-.O. . . . . . . . . ...U m p > C.C.C.C.C.C.C.C.C.C.C.C.C.C.",
"C.C.C.C.C.C.C.C.C.C.C.C.C.C.C.C.C.C.C.= * $ # # # # # # # # # # + . C.C.C.C.C.C.C.C.C.C.C.C.C.C.C.C.",
"C.C.C.C.C.C.C.C.C.C.C.C.C.C.C.C.C.C.C.C.C.C.C.C.C.C.C.C.C.C.C.C.C.C.C.C.C.C.C.C.C.C.C.C.C.C.C.C.C.C.",
"C.C.C.C.C.C.C.C.C.C.C.C.C.C.C.C.C.C.C.C.C.C.C.C.C.C.C.C.C.C.C.C.C.C.C.C.C.C.C.C.C.C.C.C.C.C.C.C.C.C.",
"C.C.C.C.C.C.C.C.C.C.C.C.C.C.C.C.C.C.C.C.C.C.C.C.C.C.C.C.C.C.C.C.C.C.C.C.C.C.C.C.C.C.C.C.C.C.C.C.C.C.",
"C.C.C.C.C.C.C.C.C.C.C.C.C.C.C.C.C.C.C.C.C.C.C.C.C.C.C.C.C.C.C.C.C.C.C.C.C.C.C.C.C.C.C.C.C.C.C.C.C.C.",
"C.C.C.C.C.C.C.C.C.C.C.C.C.C.C.C.C.C.C.C.C.C.C.C.C.C.C.C.C.C.C.C.C.C.C.C.C.C.C.C.C.C.C.C.C.C.C.C.C.C.",
"C.C.C.C.C.C.C.C.C.C.C.C.C.C.C.C.C.C.C.C.C.C.C.C.C.C.C.C.C.C.C.C.C.C.C.C.C.C.C.C.C.C.C.C.C.C.C.C.C.C.",
"C.C.C.C.C.C.C.C.C.C.C.C.C.C.C.C.C.C.C.C.C.C.C.C.C.C.C.C.C.C.C.C.C.C.C.C.C.C.C.C.C.C.C.C.C.C.C.C.C.C.",
"C.C.C.C.C.C.C.C.C.C.C.C.C.C.C.C.C.C.C.C.C.C.C.C.C.C.C.C.C.C.C.C.C.C.C.C.C.C.C.C.C.C.C.C.C.C.C.C.C.C.",
"C.C.C.C.C.C.C.C.C.C.C.C.C.C.C.C.C.C.C.C.C.C.C.C.C.C.C.C.C.C.C.C.C.C.C.C.C.C.C.C.C.C.C.C.C.C.C.C.C.C.",
"C.C.C.C.C.C.C.C.C.C.C.C.C.C.C.C.C.C.C.C.C.C.C.C.C.C.C.C.C.C.C.C.C.C.C.C.C.C.C.C.C.C.C.C.C.C.C.C.C.C.",
"C.C.C.C.C.C.C.C.C.C.C.C.C.C.C.C.C.C.C.C.C.C.C.C.C.C.C.C.C.C.C.C.C.C.C.C.C.C.C.C.C.C.C.C.C.C.C.C.C.C.",
"C.C.C.C.C.C.C.C.C.C.C.C.C.C.C.C.C.C.C.C.C.C.C.C.C.C.C.C.C.C.C.C.C.C.C.C.C.C.C.C.C.C.C.C.C.C.C.C.C.C."
};
