/* XPM */
static char *result[] = {
/* columns rows colors chars-per-pixel */
"50 50 80 1 ",
"  c #020202",
". c #070808",
"X c #0B0B0B",
"o c #190707",
"O c #1D0E0E",
"+ c #141414",
"@ c #1D1717",
"# c #1D1D1D",
"$ c #2A1010",
"% c #211818",
"& c #2E1818",
"* c #3A1313",
"= c #232323",
"- c #2B2B2B",
"; c #312121",
": c #3D2B2B",
"> c #2D3030",
", c #343434",
"< c #3E3737",
"1 c #3B3B3B",
"2 c #451919",
"3 c #412222",
"4 c #4A2929",
"5 c #582121",
"6 c #522E2E",
"7 c #403232",
"8 c #4A3535",
"9 c #443C3C",
"0 c #563737",
"q c #503F3F",
"w c #5F3E3E",
"e c #6D2424",
"r c #772121",
"t c #752A2A",
"y c #603636",
"u c #753535",
"i c #7A3E3E",
"p c #434343",
"a c #4B4747",
"s c #4C4C4C",
"d c #534D4D",
"f c #5E4E4E",
"g c #4E5050",
"h c #545454",
"j c #5F5757",
"k c #5C5C5C",
"l c #674747",
"z c #604A4A",
"x c #734242",
"c c #7D4E4E",
"v c #646464",
"b c #6B6464",
"n c #6C6C6C",
"m c #7A6D6D",
"M c #747474",
"N c #7C7C7C",
"B c #852A2A",
"V c #863232",
"C c #813C3C",
"Z c #8C3E3E",
"A c #8C4545",
"S c #914141",
"D c #9B5454",
"F c #A15454",
"G c #848484",
"H c #8B8B8B",
"J c #958080",
"K c #9B8181",
"L c #8F9090",
"P c #949494",
"I c #9A9A9A",
"U c #A3A3A3",
"Y c #ACACAC",
"T c #B4B4B4",
"R c #BDBDBD",
"E c #C3C3C3",
"W c #CCCCCC",
"Q c #D4D4D4",
"! c #D9D9D9",
"~ c None",
/* pixels */
" ~~~~~~~--=-=-=--=+  +##==~~~~~~~~~~~~~~~~~~~~~~~~",
"  ~~svnGGGHGGGGGHHMhssspMLPvhh~~~~~~~~~~~~~~~~~~~~",
"  =IHNNknNhsp-hMHhvGGGnp>sGUTTP1 ~~~~~~~~~~~~~~~~~",
"  =YHk-+,vMp,hHN,=hHINGW, +GYRRPvXnHH#~~~~~~~~~~~~",
"   XpvnnMMkkMUEIhhpsHHNk--vURRREYMkGY#~~~~~~~~~~~~",
"     X-#pMkkkvnnkkkh-=-aGURRRRRRE!Ns= ~~~~~~~~~~~~",
"  X,,1,,,1,11,,1111pGHIRERRTRRREEQWTIk1~~~~~~~~~~~",
"  #NPPIIIPIUYYUTEWEETTTTTUPPPPUUYEWRIIUH+~~~~~~~~~",
"  #NPIPUTEEERRETIIIIUUUUUYTERTYYUNk1+#pkvh1~~~~~~~",
"  #NHIUW!QIHHHHHPUYRRRRERYIQQW!!IX##+=>>#GG=~~~~~~",
"  #NPYQ!EINHIPIIYRERRRRRRRYEQ!!!I.+@+#-p1-hU1+~~~~",
"  #NPY!!UnPIIPUTRRRRRRRRRRRRQ!!!P+>as++#===,Pn.~~~",
"  #NHYQEPMPIPITRRRRRRRRRRREWQ!!naMHTWh=@091p1nL@~~",
"  #NHTQNNIIPITRRRRRRRRERRRE!!!!s-IITQ!kOAAxp+kI1=~",
"  #NPYQMNPIIURRRREERERRREREQ!Ev,1LIT!Ej;JDip,-pRh ",
"  #NPYQNMGGGHIIIIIIIIIIIIIIYYIk1><sbm622y8<pnHTQk ",
"  #MHUWPHGGGHUUUUUUUYTYYYYYYRRYPvX$*2zdkIUPnGkpWk ",
"  .#-,pkvvvvbnnnnMhaMMGTREEREQQWTIIGnPnsghhp,##Ek ",
"  .-kNGGGGGGNMMGIGGNNs,,MITRUITWQRv<=#-pskvvp==Ek ",
"  -EHnk1kGg,==vMv,hGGGGM==gITTIUTE-o254:qagkp=#Ek ",
"  #nGn-=,sMkhGIG,,gNINGE, @GYREREW,X&rBVZiypp##Ek ",
"    #pnnGIvvNIRUnnkhnMk-,kLTRRREWQ,.%eBSKDipp=#Wk ",
"      X.#11,,1,1,,1,,-1sIRERRRRWQW,.%etuclfvv,#Ek ",
"  +hvvnnvvvvvvnnnNNGYYInURRREEWQQW, #3:,9sknM1#Ek ",
"  #NPIIIIUTTYTRRRREEERUnYWEEEQ!!QR-.%>pp1phMn1#Ek ",
"  #NPIPYTRRTYNMHTRRRREYkMNGvU!!!QT-.=,1ppphnn1#Ek ",
"  #NPUTEYM-=pIk,,UEWQUv-1nP#M!!!QT-X#->1hhvvs-=Ek ",
"  #NHYQh,p1+.,1vPRTUIh,hvg1PE!!!QT-.=,pskvvvp=#Ek ",
"  #NPTW1pMh1pGTRIIIN+-pkUM+R!!!!QT-.=,1shvvvp=#Ek ",
"  #NHYQv1pMPUUUUYTUGX #hpkHW!!!!QT-.=,pshvvvp##Yh ",
"  #NIRQGHUTYYRRRREEI++1H,k!!!!!!QT-X=,pshvkhh, +~~",
"  #NYW!QETRERRRRRRRU+sk=LW!!!!!!QR-X=,pshvhpnp  ~~",
"  #NYWWPk1NURERRRREI+#,hT!!!!!!!QT-X=,pshshvh, ~~~",
"  #MTIp+   -kLTRRREU=,vTQ!!!!!!QQT-.=,1pskkh#~~~~~",
"  @kTP     +##nITRRTMPR!!!!!!!!!QT-X=-phhp,~~~~~~~",
"  @vRP     @##kNHTREWQ!!!!!!QW!!QR-X=php+~~~~~~~~~",
"  @vTP.    +#=vGGTRE!!!!!!!WWW!!WT-#11=+~~~~~~~~~~",
"  +vRP .  .+#=vGHTREQ!!!!QWWQ!!!QT- =Ps ~~~~~~~~~~",
"  @kRP.    +#=nNGTRE!!!!QWE!WWQ!QR- Xhp~~~~~~~~~~~",
"  +vTP   . +#=vGGTRE!QQWQQQEWW!WET- ~~~~~~~~~~~~~~",
"  #kRP.    @#=vGGTEEQWEQQWRRW!!ERT- ~~~~~~~~~~~~~~",
"  +vRP     +#=vGGTRE!QQWREQ!!QQERY- ~~~~~~~~~~~~~~",
"  +kTP.    +#=vGHTREQ!!!!!!!QWREP-~~~~~~~~~~~~~~~~",
"  #kRP   . +#=vGGTRE!!!!!!QQWEWYN ~~~~~~~~~~~~~~~~",
"  #kRP     +##vGGTRE!!!!Q!!QQWTs.~~~~~~~~~~~~~~~~~",
"  +vYL+.XXX#>pMLURRTPYR!!!!!QU=~~~~~~~~~~~~~~~~~~~",
"  #MIIPNMnNNGHUREREU=pnGTEEPv,~~~~~~~~~~~~~~~~~~~~",
"  =NURWMhkIIIYRRTTTI+1kh,--~~~~~~~~~~~~~~~~~~~~~~~",
"  #NYEE-1Nnp,hhMPPGns-+#  ~~~~~~~~~~~~~~~~~~~~~~~~",
"~ X1hkh=~~~~~~~~~~~~~~~~~~~~~~~~~~~~~~~~~~~~~~~~~~"
};
