/* XPM */
static char *result[] = {
/* columns rows colors chars-per-pixel */
"50 50 80 1 ",
"  c #020202",
". c #070808",
"X c #0B0B0B",
"o c #190707",
"O c #1D0E0E",
"+ c #141414",
"@ c #1D1717",
"# c #1D1D1D",
"$ c #2A1010",
"% c #211818",
"& c #2E1818",
"* c #3A1313",
"= c #232323",
"- c #2B2B2B",
"; c #312121",
": c #3D2B2B",
"> c #2D3030",
", c #343434",
"< c #3E3737",
"1 c #3B3B3B",
"2 c #451919",
"3 c #412222",
"4 c #4A2929",
"5 c #582121",
"6 c #522E2E",
"7 c #403232",
"8 c #4A3535",
"9 c #443C3C",
"0 c #563737",
"q c #503F3F",
"w c #5F3E3E",
"e c #6D2424",
"r c #772121",
"t c #752A2A",
"y c #603636",
"u c #753535",
"i c #7A3E3E",
"p c #434343",
"a c #4B4747",
"s c #4C4C4C",
"d c #534D4D",
"f c #5E4E4E",
"g c #4E5050",
"h c #545454",
"j c #5F5757",
"k c #5C5C5C",
"l c #674747",
"z c #604A4A",
"x c #734242",
"c c #7D4E4E",
"v c #646464",
"b c #6B6464",
"n c #6C6C6C",
"m c #7A6D6D",
"M c #747474",
"N c #7C7C7C",
"B c #852A2A",
"V c #863232",
"C c #813C3C",
"Z c #8C3E3E",
"A c #8C4545",
"S c #914141",
"D c #9B5454",
"F c #A15454",
"G c #848484",
"H c #8B8B8B",
"J c #958080",
"K c #9B8181",
"L c #8F9090",
"P c #949494",
"I c #9A9A9A",
"U c #A3A3A3",
"Y c #ACACAC",
"T c #B4B4B4",
"R c #BDBDBD",
"E c #C3C3C3",
"W c #CCCCCC",
"Q c #D4D4D4",
"! c #D9D9D9",
"~ c None",
/* pixels */
"~~~~~~~~~~~~~~~~~~~~                ~~~~~~~~~~~~~~",
"~~~~~~~~~~~~~~~~~~~~hkkkkkkkkkkkkkkh=~~~~~~~~~~~~~",
"~~~~~~~~~~~~~~~~~~ +YEEEEEEEEEEEEEQR1@~~~~~~~~~~~~",
"~~~~~~~~~~~~~~~~~  .########=####pTpIPX~~~~~~~~~~~",
"~~~~~~~~~~~~~~~~~,p,#=#-111,====@vL>knn+~~~~~~~~~~",
"~~~~~~~~~~~~~~~~@hnhppasnnMbp1pp,Gv,+,P,~~~~~~~~~~",
"~~~~~~~~~~~~~~~~hvpgvvvvnMnvppkvavapp1,U=~~~~~~~~~",
"~~~~~~~~~~~~~~~,kghkvvnkgkkziwsvhP7xx1-gG1~~~~~~~~",
"~~~~~~~~~~~~~~~pkskvvvvkpaslFiahhY8DDp=-Gh~~~~~~~~",
"~~~~~~~~~~~~~~+hshhkkhhsp11cKAagsI0DAq=1#v+~~~~~~~",
"~~~~~~~~~~~~ +sgpssssss1pp,uSB79sk2;+@#p,vG~~~~~~~",
"~~~~~~~~~~~ps=hp1p1pp1p,1p:tBB4-nd2jv=+--pUp~~~~~~",
"~~~~~~~~~~~hP1a-,,,,,,>=>>2eer5#Pz6EQhX#=#Ik.@#~~~",
"~~~~~~~~~~~X=1======-==#-#@%%&2=n2m!!Wg+++II=YG~~~",
"~~~~~~~~    X@.XXXXXXX.X.X...Xo1G*bTTTs+#1RTsGH~~~",
"~~~~~~~~------------------>,,,-vI$dPIL,+#kQENkn~~~",
"~~~~~~.>YTTTTTTTTTTRTRTTTTWWQWERI+,HIMXXXMWW!M+~~~",
"~~~~~XMIRREQQQQQQQQQQQQQQQ!QWETQTv>p-aIIIUYEEYk ~~",
"~~~~~sYEEWW!!!!!!!Q!!!!!!!QWERIQEIp>an!!!YYRREP1~~",
"~~~~-TERW!!!!!Q!!!!!!!!!!!WRRRIT!UvvQ!!!!YURRREL~~",
"~~~,UWRW!!QE!WW!!!!!!!!!!WERRETIQRUE!!!!QTIRRRRTs~",
"~~~vQWWQ!WEQQWQ!Q!!!!!EMUWRRRYTUERY!!!WQQRPTRTYTh~",
"~~~P!Q!!!RE!WW!!!!!!WRP#vERRTGIRRYU!QWRWWRPRRUGYv~",
"~~-R!!!!WR!EW!!!!!!!H+1PGERRP@sTEYIEERRYUTPRRv+NI~",
"~ -E!!!!EWQW!!!!!!EvkMhnNERRk #IEYIERRETYYYRY- sP#",
"~.,T!!!!EQWQ!!!!QTL-pUv1MYYI,,=MRYIRRRRRRUYRG=,>M=",
"~@hN!!!!WQW!!!!!Th-Hhkh-vvng-EM,TYIRRERREUTRakWpa#",
"~+knE!!!QEQ!!!!Tv,k1@a,vYUI,kGG,GYIERRRRRUTI-NGns#",
"~-1aY!!!!WQ!!!!P>#aX -hUEET-MGGsNYIRRERRRUTH=LMGs+",
"~s+#I!!QQ!!QQ!WM-+++X+IQRRY>nIGNMYIRRRRRRUTG-HIGs ",
"~nIUTEREEEEEEEETUUUIGGUWREG1hMGNaUIRRRRRTUEsgaHGh ",
"~GTEERRRRRRRRRRRRRRRUITEREN1khhNhUUERRREYIE1kahnn+",
"~ITRRTTTTTTTTTTRRRERYIRUREN,n-,GnUIERRRRUPE1kh=hH-",
"~PTRUGGGGGGGGGHTRRRRTIP,YEn,n,vInUIRRRRYPIE1vh,GH=",
"~nRRPGGGGGGGGGNIRRRRURk1GRn1UGMGnUIERRTIHYT1nIMMG-",
"~hRYMvvvvvvnvvknTERTUT1kMRn1RIvMMUIRRTUIHEY,nEHhG=",
"~hYHp#=#===#===#PRRRUG,INTv1IG#MnUIRYIIPHRY,vUk-G-",
"~-IG-###########kREYUpXpYTv,Nh=GvHHUIIIIGEY,kM,pG-",
"~aIN#+++++++++++-UEYP1+=RTv,vk,GvHGPIPIHLEU1hvaaG-",
"~nINX.   . .    .NRTMh1-TYv1vMsGvGGIIPPNUEI,kkMgH=",
"~NknX            1TU1MpnEUv1IsGGvGGIIMnIQEI,MMvNG-",
"~1hMX       .    kEHpp1YTIv#G>kGvGMNNPUE!TI,an,nG-",
"=-MNX .       . +PQHv1hEYIn.n=1GvPNMNR!!EUI1=v+kG~",
"hEWH+..... ...  pQ!QQWWTIIvXM-kGpWQQQQQQUIP,-n-Nn~",
"kEEIHLPPPPPIPPPPIEWRYYTIPIv.pnvM,YYYYYYYIPP1XvkNv~",
"hYYPYRRTTRTTTRRTTYYIPPHPPPv @GHv=HPPPLPLPPP1 pHHs~",
"1NNMkvkvvvvkvvkvMNNNNNNNNNh  nE-#MNNNNNNNNN- XYI~~",
"+####+@++@@++++@#######=##+  +-XX##########X .==~~",
"                                                 ~",
"~       .                                         "
};
