/* XPM */
static char *result[] = {
/* columns rows colors chars-per-pixel */
"50 50 80 1 ",
"  c #020202",
". c #070808",
"X c #0B0B0B",
"o c #190707",
"O c #1D0E0E",
"+ c #141414",
"@ c #1D1717",
"# c #1D1D1D",
"$ c #2A1010",
"% c #211818",
"& c #2E1818",
"* c #3A1313",
"= c #232323",
"- c #2B2B2B",
"; c #312121",
": c #3D2B2B",
"> c #2D3030",
", c #343434",
"< c #3E3737",
"1 c #3B3B3B",
"2 c #451919",
"3 c #412222",
"4 c #4A2929",
"5 c #582121",
"6 c #522E2E",
"7 c #403232",
"8 c #4A3535",
"9 c #443C3C",
"0 c #563737",
"q c #503F3F",
"w c #5F3E3E",
"e c #6D2424",
"r c #772121",
"t c #752A2A",
"y c #603636",
"u c #753535",
"i c #7A3E3E",
"p c #434343",
"a c #4B4747",
"s c #4C4C4C",
"d c #534D4D",
"f c #5E4E4E",
"g c #4E5050",
"h c #545454",
"j c #5F5757",
"k c #5C5C5C",
"l c #674747",
"z c #604A4A",
"x c #734242",
"c c #7D4E4E",
"v c #646464",
"b c #6B6464",
"n c #6C6C6C",
"m c #7A6D6D",
"M c #747474",
"N c #7C7C7C",
"B c #852A2A",
"V c #863232",
"C c #813C3C",
"Z c #8C3E3E",
"A c #8C4545",
"S c #914141",
"D c #9B5454",
"F c #A15454",
"G c #848484",
"H c #8B8B8B",
"J c #958080",
"K c #9B8181",
"L c #8F9090",
"P c #949494",
"I c #9A9A9A",
"U c #A3A3A3",
"Y c #ACACAC",
"T c #B4B4B4",
"R c #BDBDBD",
"E c #C3C3C3",
"W c #CCCCCC",
"Q c #D4D4D4",
"! c #D9D9D9",
"~ c None",
/* pixels */
"~~~~~~~~~~~~~~                ~~~~~~~~~~~~~~~~~~~~",
"~~~~~~~~~~~~~=kjjkkjkkjkkjkkjh~~~~~~~~~~~~~~~~~~~~",
"~~~~~~~~~~~~+1RQWEEEEEEWEEEWEY+ ~~~~~~~~~~~~~~~~~~",
"~~~~~~~~~~~.PUpTp############@.  ~~~~~~~~~~~~~~~~~",
"~~~~~~~~~~+nnj-Hk+==#=1111-##=,p,~~~~~~~~~~~~~~~~~",
"~~~~~~~~~~,P1+,nG,ppppvnnnspppkvh@~~~~~~~~~~~~~~~~",
"~~~~~~~~~=U,1pppnpvkp9vnnnvvvvspvh~~~~~~~~~~~~~~~~",
"~~~~~~~~1Gh-1xi9Phvgwifkjhvnvvkhhk,~~~~~~~~~~~~~~~",
"~~~~~~~~hG=-9ADpYhjacFlaspkvvvvvskp~~~~~~~~~~~~~~~",
"~~~~~~~+v#1=0ADzPhsaADc91pghhhhhhsh+~~~~~~~~~~~~~~",
"~~~~~~~Gv,p#@+;2ks1<CSu,pp1gssssspss+ ~~~~~~~~~~~~",
"~~~~~~pUp--+=kj2dn-4BBt:11,pp1ppp1ph=s1~~~~~~~~~~~",
"~~~#@ kI#=#Xh!E6zP#5rre:>>=,>,,>,>-s1Ph~~~~~~~~~~~",
"~~~HY=PI+++sW!!m2n=2&%@@#-#=-=-==-==1=X~~~~~~~~~~~",
"~~~HGsTR1#@sTTTb*G1o......XXXX..XXXX@.    ~~~~~~~~",
"~~~nkNWWk#+,HIIs$Iv-,,,,------------------~~~~~~~~",
"~~~XN!WWNX.+MIP,XIREQWQWTTTTTTTRTTTTTRTTRY-.~~~~~~",
"~~ kYEEYUIIPp-1>vTQTEWQ!QQQQQQWQQQQQWQQERRPM.~~~~~",
"~~1PEREUY!!!Mp,1PWWIREWQ!!!!!!!!!Q!!!!!WWEEYs~~~~~",
"~~PRRRRUY!!!!!vvYQTURRRQ!!Q!!!!!!!!!!!!!!WRWR=~~~~",
"~hTRRRRPTW!!!!EIRQIYRRREQ!!!!!!!!!!WW!WW!QWRWU,~~~",
"~hTYTERPRQQW!!!YREYTTRRRWUME!!!!!!!QWQWWW!QWWQb~~~",
"~vYGIRRPRWWRWQQYYERIGTRRRv#PRW!!!Q!!WE!ERQ!QQ!P~~~",
"~PG+vRRPTUYREREIYRTd+PRRENP1+H!!!!!!!QE!RQ!!!!R-~~",
"=Hs -YRUYYTREREIYEI# kRRWNnsMkkE!!!!!!WQWE!!Q!W- ~",
"=N,,=GETURRRRRRIYRM=,,IYYM1vUs>PTW!!!!QWQE!Q!!T,.~",
"#p1WkaRTURRRRERIYT,NR-snvk-kkhH-hT!!!!!WQW!!!!Nh@~",
"#sMGN-PTUERRRRRIYG,GGk,IYYv>p#<k1kR!!!!QEQ!!!EMk+~",
"+sGNH-HTURRERRRITMgGNM-YREUh- +s#-P!!!!!WQ!!!Yp1-~",
" sGPH-GTURRRRREIYMNGUn,YRR!I+X+X+=MWQ!QQQ!Q!!I#+s~",
" hGPsgsEUTRRRRRIYpNGMh1GERWUNGUIUUTEEEEEEEEEETUPn~",
"+nvhpk1EIYERERRIUhGhgk1NERETIYRRRERRRRRRRRERRRERG~",
"-Hh=hk1WPURRRRRIUnG,,n,NERURITRRRRRTRTTTTTRTTRRTP~",
"-HG-hv1EIPYRRRRIUnIv,n,nEY,PIYRRRETHGGGGGGGGGURTP~",
"=GMNUv,TTHUTRRRIUnGMNU,nRH,vRURRRRINGGGGGGNGGPRRM~",
"-GhHRn,YRGPURRRIUnMvUR1nRMk1TIRRETvjvvvvvnvnvnURh~",
"=G-hUv1YEGPIITRIUnM#GI1vTNI,GURREP#=#=======#pGTh~",
"-Hp,Mk,YEGIIPIUGHnG=hN,vYYpXpYYERk###########>GI-~",
"=Hspvk1URLHIPIIGGvG,kv,vTR=+1PYRU-+++++++++++@NIs~",
"-GhMjk,IEUNPPIIGGvGgMv1vYR-,hMTRN   .        XNIn~",
"-GNvMM,IEQIvNPIGGvGGsI1vUEMpM1UT1     .   .  XMkN~",
"=Gn,Mp1PT!RUINNMGvGv>G#vITU,ppHEk       .    XMh1~",
"~Gk+n#,IUW!!EMMNPkG<=n.nIYWh1vHQP+  .        .Nn-#",
"~nN=n-1PPUQ!!QQQWsNk-MXvIPTWWQQ!Qp . .   ..  +LQEj",
"~vNkv.1IPIYYYYTYU,Nvnp.vIIUYYYRWEIPPLLPLPPPLPHIEEk",
"~hHHp ,PPPLPLLLLH-vHG@ vPPPHPHIYYTTRRRRRRTRRRYPYYh",
"~~IYX -NNNNNNNNNM#-En  hNNNNNNNNNMvkvvvvkkvvvvnGN1",
"~~==. X#########=..-+ .+##########@+++++@+++++###X",
"~                                                 ",
" .                                   .         . ~"
};
