/* XPM */
static char *result[] = {
/* columns rows colors chars-per-pixel */
"48 50 99 2 ",
"   c #1F1E33",
".  c #211F34",
"X  c #232034",
"o  c #2C2436",
"O  c #2F2837",
"+  c #2F2838",
"@  c #312437",
"#  c #332837",
"$  c #3B2A36",
"%  c #342438",
"&  c #3B263A",
"*  c #362B38",
"=  c #3C2B3A",
"-  c #3D313B",
";  c #422C37",
":  c #42273B",
">  c #45293B",
",  c #4A2C3B",
"<  c #512F3C",
"1  c #44333B",
"2  c #4B3339",
"3  c #4A393D",
"4  c #53333A",
"5  c #5A353C",
"6  c #533D3E",
"7  c #5D3A3B",
"8  c #61373D",
"9  c #643A3C",
"0  c #6A3D3D",
"q  c #57403F",
"w  c #65413E",
"e  c #6C443E",
"r  c #73413D",
"t  c #7C463D",
"y  c #7F483D",
"u  c #4D3A40",
"i  c #523E41",
"p  c #5B3C42",
"a  c #623E44",
"s  c #564042",
"d  c #5C4343",
"f  c #624642",
"g  c #664943",
"h  c #6A4C43",
"j  c #6F4748",
"k  c #6D4E49",
"l  c #734D44",
"z  c #7A4E45",
"x  c #744B4B",
"c  c #7A4E4A",
"v  c #6F504A",
"b  c #735145",
"n  c #7B5547",
"m  c #75534B",
"M  c #7A554C",
"N  c #7D584D",
"B  c #80483D",
"V  c #835447",
"C  c #8B5545",
"Z  c #875947",
"A  c #8D5946",
"S  c #83544A",
"D  c #8A5748",
"F  c #845B4A",
"G  c #8B5B4B",
"H  c #935B47",
"J  c #995F47",
"K  c #935D4B",
"L  c #825B50",
"P  c #8A5E51",
"I  c #8D614B",
"U  c #95644C",
"Y  c #9C644B",
"T  c #9C694E",
"R  c #8E6353",
"E  c #936554",
"W  c #9C6551",
"Q  c #976856",
"!  c #9C6A56",
"~  c #9E6D58",
"^  c #A1664B",
"/  c #A36B4E",
"(  c #AB6F4E",
")  c #AE714F",
"_  c #A36C55",
"`  c #A96F51",
"'  c #A26F59",
"]  c #A77150",
"[  c #AD7451",
"{  c #A57159",
"}  c #AD765C",
"|  c #AF785D",
" . c #B27652",
".. c #B67953",
"X. c #BD7E55",
"o. c #B0785D",
"O. c #BF8055",
"+. c #C08056",
"@. c None",
/* pixels */
"@.@.@.@.@.@.@.@.@.@.@.@.@.@.@.@.@.@.@.@.@.- 1 1 1 1 - @.@.@.@.@.@.@.@.@.@.@.@.@.@.@.@.@.@.@.@.@.",
"@.@.@.@.@.@.@.@.@.@.@.@.@.@.@.@.@.@.@.@.- g  .[ [ ..v - @.@.@.@.@.@.@.@.@.@.@.@.@.@.@.@.@.@.@.@.",
"@.@.@.@.@.@.@.@.@.@.@.@.@.@.@.@.@.@.d m N h +.X.O.O.b v m d @.@.@.@.@.@.@.@.@.@.@.@.@.@.@.@.@.@.",
"@.@.@.@.@.@.@.@.@.@.@.@.@.@.@.o s M ~ | L g X.X.O.O.b M | ' d o O @.@.@.@.@.@.@.@.@.@.@.@.@.@.@.",
"@.@.@.@.@.@.@.@.@.@.@.@.@.# u L ! | | | N k X.X.O.O.v M | | N h U 6 * @.@.@.@.@.@.@.@.@.@.@.@.@.",
"@.@.@.@.@.@.@.@.@.@.@.@.u L ' } | } } | L g O.X.X.O.b M | | E U +.[ U 6 - @.@.@.@.@.@.@.@.@.@.@.",
"@.@.@.@.@.@.@.@.@.@.i M { } _ W } } } | L g X.X.X.O.b M o.} Y ^ X.O.X...F d @.@.@.@.@.@.@.@.@.@.",
"@.@.@.@.@.@.@.o d m { } ! K U W } } } ~ i g X.X.X.X.b u ! } G Z X.X.X.X.X.X.F g o @.@.@.@.@.@.@.",
"@.@.@.@.@.+ s N ~ | } } ' W } o.} ~ v d d h X.X.X.X.b d D S k l +.X.X.X.X.X.+. .I d O @.@.@.@.@.",
"@.@.@.= 1 F ~ | | | } } } | { ! m u N ~ L g O.X.X.O.b m { E a M ` X.X.X.X.X.X.X.+.[ T q - @.@.@.",
"@.@.q I C { | } } } } | } E G g p x } | L h O.X.X.O.b f Y _ ' P k S Y X.X.X.X.X.O.O.....U q - @.",
"# n X...H { } } } } | E k l U X.G N | | N h X.X.X.X.b m W W } } { m b Y [ X.X.X.O.O.O.O.O.O.N * ",
"1 [ O.T w ! } | { ~ g h N [ X.O.G S | | F h O.X.X.O.b M } } } } } | { W U Y  ...O.O.O.X.O.O. .3 ",
"1 / H U q Q } ! v d I ] O.O.X.O.G c | } m h O.X.X.O.b k } } } } } } } o.` ! D n ]  .O.X.O.O...3 ",
"1 [ ..O.q M M s I [ X.X.X.X.X.O.G N Q L 3 g X.X.X.O.b 1 N E } } } } } } } } { M 3 n T ..O.O...3 ",
"1  .O.U - q n ..X.O.X.X.X.X.X.O.M u k x N h X.X.X.O.l n m k m E } } } } } } | F g F g n U O...3 ",
"1 Y n n V ..X.X.X.X.O.O.X.X...Y A n ] +.I g O.X.X.O.b F O.) n F K ' } } } } } L h O...F b h U 3 ",
"# z U ) X...X.X.X.O.O...) n C (  .X.X. .l h X.X.X.X.b F O.O.+. ./ g k { } } o.P c X.X.X.) I h * ",
"= _ +.X.Y J ) ..X.X.] F q A  .X.X.X.Y J V h O.X.X.X.b F O.X.X.O.X.] Y D E E } P n O.X.X.O...U - ",
"1  .X.X.X.) U ) T F f n  .X.X.X.X.X...X.I h X.X.X.O.b V O.X.X.X.X.+.( D N p M k c X.X.X.O.( H 1 ",
"1 ..O.O.O.O./ m h 1 ] O.X.X.X.X.X.X.X.+.G h X.X.O.O.b V +.X.X.X.X.O.( K } { m p a ( +.X.X.X. .3 ",
"- [ O.X. .h h m E s ] O.X.X.X.X.X.X.X.+.I h X.X.O.O.b e ..X.X.X.X.X.( H } } | ' L c M [ X.+...3 ",
"1 )  .Y H P ! o.{ d ] O.X.X.X.X.X.X.X.+.I g X.O.O.X.l n X.X.X.X.X.X._ x } } } } } _ P i j ] [ 3 ",
"1 U H T { } } } { Z  .O.X.X.X.X.X.X.X.+.I 2 H / / H 2 n X.X.X.X.X.X.Y x } } } } } } _ u M s M 1 ",
"* K { | | } } } } H  . .^ ..X.X.X.X.( ^ a @ & & = = @ , J [ X.X.X.X.Y x } } } } } | ~ s ' { m + ",
"- { } } } } } } { C J Y ^ ..X.X.( J 0 , & & . @ o o % % ; 7 J ` X.X.Y x } } } } } } L u { | { - ",
"- ' } } } } } } } C ^  .+.X. .A e $ & . : > @ & & @ > > o & $ w C  .U g } } } } W H I u ' | ' u ",
"- { } } } } } } { d [ X. .C 0 ; & : : @ : > @ & & @ > : o : & & = e 9 d } } } } { { ! s ' } ' u ",
"- ' } } } } } } { i U H 0 : . % % & & o & & @ @ & . & & o % & & % . . & S ' } | } | ~ i { } { u ",
"- ' _ W { } | } W > 2 2 % % % % % % % o % % @ @ % @ @ % @ @ @ @ % @ & % ; 5 D W } | ~ i { } { 1 ",
"= S J W { } ! D 7 o % & > > > > > : > > > , 8 0 0 8 < > u > > > > > > > & & ; 7 D ! ~ i { } { 3 ",
"= W { } _ V w $ & : > > > > > > > > > , 8 0 B B B a 0 < > > > > > > , > > > & & = 7 l 2 ~ } { 3 ",
"- ' _ V 0 & @ @ & & : & & & & & & & : 5 8 9 0 9 9 0 w 9 5 : & & & & & & & & & & . @ @ @ z _ _ u ",
"- M 9 ; & : & . @ @ @ @ @ @ @ @ o # @ # # % % % % % @ @ @ @ @ @ @ @ @ @ @ @ % @ . & & @ : 5 c : ",
"o $ o & : > & @ : > : : : > 5 8 8 8 8 7 9 4 5 0 8 8 9 9 > % # * % % % % % : : u & & : u : o $ o ",
"@.. % > : : & @ > > > : = = , , 2 2 2 6 t 8 9 r t t t 8 u M M m M M M M M u & : % & : > > # . @.",
"@.@.@ > > u & @ > , > i L N M M M M N N 4 8 < 5 5 4 4 = M L - - - - - - v R & : & & , > > % @.@.",
"@.@.@ > : : & @ 4 r 9 d k o + + O o - N 2 8 8 r t t 8 % N - .   . . . . o N u 2 4 4 8 < > % @.@.",
"@.@.# > > 8 , % 0 y 9 d h . X X   X O N 2 9 0 y t y 8 % F * X X . . X X X N - 4 4 4 y r 5 % @.@.",
"@.@.@ 5 a t 8 % < 5 2 d h . . X X X O I ; < 4 8 5 5 < $ F * . X . X X . X L u > ; 7 y y t , @.@.",
"@.@.; t y y 8 % 8 r 5 f h           O I 1 0 0 0 r 0 5 # I *   X   X X X o F 1 , 2 4 y y y 4 @.@.",
"@.@.2 y y y 9 @ 0 B 9 f F 3 3 3 3 3 q I 2 t y y B B 8 * I * X X X X X   X F 2 < 4 7 y t y 2 @.@.",
"@.@.2 t t y 8 @ 5 0 5 4 n n n n n n n l ; 0 0 0 0 0 4 # n * X X X X X X o N 1 < 4 7 t y y 4 @.@.",
"@.@.2 y y y 7 % 5 9 9 5 4 $ 2 4 4 5 4 5 9 9 7 8 9 8 4 # I *   .   X X X X F 1 < 4 4 y t y 4 @.@.",
"@.@.2 y t y 5 % 0 B B B B 5 r B B B B B B B B B B B 9 & F *   X X X X   X F 1 4 4 7 y t y 4 @.@.",
"@.@.2 y y y 7 % 9 r r a r 5 0 r 0 0 0 t r 0 0 0 0 r 5 * I *   X X X X X X F 1 4 2 4 y y y 3 @.@.",
"@.@.2 y y y 5 % 5 5 5 5 5 4 5 5 5 5 5 5 8 8 5 5 5 5 < & I * X X X X X X o N 1 ; ; 4 y t y 4 @.@.",
"@.@.2 t y y 9 & 9 t t t y t t t t t t t t t t t z y 8 # F * . X X X X   o F 1 4 4 7 y t y 4 @.@.",
"@.@.2 r y t 5 o $ 2 ; 2 ; 2 2 ; 2 ; 2 ; 2 2 ; 2 2 ; $ o N * @.@.@.@.@.@.o n - # # 5 t t t 2 @.@.",
"@.@.# $ $ $ # @.@.@.@.@.@.@.@.@.@.@.@.@.@.@.@.@.@.@.@.o - o @.@.@.@.@.@.X = o @.@.* $ $ $ # @.@."
};
