/* XPM */
static char *result[] = {
/* columns rows colors chars-per-pixel */
"50 50 134 2 ",
"   c #09071E",
".  c #0B081F",
"X  c #0D0B21",
"o  c #110F26",
"O  c #131127",
"+  c #161329",
"@  c #19172C",
"#  c #1B192E",
"$  c #1D1C33",
"%  c #1F1F39",
"&  c #201E34",
"*  c #1F213B",
"=  c #222036",
"-  c #22233C",
";  c #28273E",
":  c #2A293E",
">  c #242641",
",  c #262945",
"<  c #2E2E44",
"1  c #272C4A",
"2  c #292E4B",
"3  c #302E43",
"4  c #2F3046",
"5  c #2A304E",
"6  c #313045",
"7  c #34344A",
"8  c #38374A",
"9  c #37384E",
"0  c #3B3A4D",
"q  c #2D3452",
"w  c #303655",
"e  c #353954",
"r  c #3C3D52",
"t  c #353C5A",
"y  c #383F5B",
"u  c #3D415C",
"i  c #3D4461",
"p  c #424155",
"a  c #45455A",
"s  c #45485E",
"d  c #4B4B5E",
"f  c #404764",
"g  c #424966",
"h  c #4D4E62",
"j  c #454D6A",
"k  c #4A4F68",
"l  c #4C516B",
"z  c #525264",
"x  c #53566C",
"c  c #4E5672",
"v  c #535A76",
"b  c #585D76",
"n  c #555D7A",
"m  c #57607C",
"M  c #5C637D",
"N  c #626373",
"B  c #60667E",
"V  c #676878",
"C  c #6C6D7D",
"Z  c #5D6581",
"A  c #5F6884",
"S  c #626A84",
"D  c #696E84",
"F  c #646D89",
"G  c #6C7084",
"H  c #67718D",
"J  c #6B738E",
"K  c #737483",
"L  c #797B8C",
"P  c #6C7692",
"I  c #717A94",
"U  c #737D98",
"Y  c #7F808E",
"T  c #76809B",
"R  c #79839E",
"E  c #7C86A0",
"W  c #7E89A4",
"Q  c #838593",
"!  c #878896",
"~  c #888A97",
"^  c #8B8D9A",
"/  c #818CA5",
"(  c #838EA9",
")  c #8B92A6",
"_  c #8691AC",
"`  c #8A95AD",
"'  c #9A9CA9",
"]  c #8B96B1",
"[  c #8E9AB4",
"{  c #909CB6",
"}  c #929EB9",
"|  c #9FA2AE",
" . c #95A1BB",
".. c #9AA5BE",
"X. c #9CA8BF",
"o. c #A0A3AE",
"O. c #A7AAB5",
"+. c #A8ABB5",
"@. c #A1A9BB",
"#. c #ABAEB9",
"$. c #9AA6C0",
"%. c #9EA9C1",
"&. c #A1ACC3",
"*. c #A6B1C6",
"=. c #A9B3C7",
"-. c #ABB5C9",
";. c #AFB9CC",
":. c #B2B6C2",
">. c #B4B9C6",
",. c #B8BBC5",
"<. c #B3BCCE",
"1. c #BBBFC9",
"2. c #B5BED0",
"3. c #BFC3CC",
"4. c #B7C0D1",
"5. c #BCC4D4",
"6. c #C1C5CE",
"7. c #C2C7D3",
"8. c #C3CAD5",
"9. c #C9CED6",
"0. c #C4CCDA",
"q. c #CACFDA",
"w. c #CBD1DC",
"e. c #D1D6DE",
"r. c #CED5E0",
"t. c #D1D7E1",
"y. c #D4DAE4",
"u. c #D9DEE6",
"i. c #DAE0E7",
"p. c #DDE2E9",
"a. c #E1E6EC",
"s. c #E4E9EE",
"d. c #E6EBF1",
"f. c None",
/* pixels */
"f.f.f.f.f.f.f.f.f.f.f.f.f.f.f.f.f.f.f.f.f.f.f.f.f.f.f.f.f.f.f.f.f.f.f.f.f.f.f.f.f.f.f.f.f.f.f.f.f.f.",
"f.f.f.f.f.f.f.f.f.f.f.f.f.f.f.f.f.f.f.f.f.f.f.f.f.f.f.f.f.f.f.f.f.f.f.f.f.f.f.f.f.f.f.f.f.f.f.f.f.f.",
"f.f.f.f.f.f.f.f.f.f.f.f.f.f.f.f.f.f.f.f.f.f.f.f.f.f.f.f.f.f.f.f.f.f.f.f.f.f.f.f.f.f.f.f.f.f.f.f.f.f.",
"f.f.f.f.f.f.f.f.f.f.f.f.f.f.f.f.f.f.f.f.o o o o o o o f.f.f.f.f.f.f.f.f.f.f.f.f.f.f.f.f.f.f.f.f.f.f.",
"f.f.f.f.f.f.f.f.f.f.f.f.f.f.f.f.f.f.f.= = = = = = = = = f.f.f.f.f.f.f.f.f.f.f.f.f.f.f.f.f.f.f.f.f.f.",
"f.f.f.f.f.f.f.f.f.f.f.f.f.f.f.f.f.f.0 a d d d d d d d a 0 f.f.f.f.f.f.f.f.f.f.f.f.f.f.f.f.f.f.f.f.f.",
"f.f.f.f.f.f.f.f.f.f.f.f.f.f.f.f.f.; z K ~ ^ ^ ~ ^ ^ Q K h = .   o o O O f.f.f.f.f.f.f.f.f.f.f.f.f.f.",
"f.f.f.f.f.f.f.f.f.f.f.f.f.f.f.f.# 7 V | 6.w.9.9.9.w.6.' N 3 # @ # & & $ $ f.f.f.f.f.f.f.f.f.f.f.f.f.",
"f.f.f.f.f.f.f.f.f.f.f.f.f.f.f.6 p x Q ,.u.d.s.a.s.s.u.#.Q z p p p p r 8 7 < f.f.f.f.f.f.f.f.f.f.f.f.",
"f.f.f.f.f.f.f.f.f.f.f.f.f.f.; z C ^ #.9.s.d.d.s.d.d.a.9.+.^ Q Q Q L D B x u ; + O @ f.f.f.f.f.f.f.f.",
"f.f.f.f.f.f.f.f.f.f.f.f.f.# 8 C o.7.t.u.p.a.a.p.a.a.u.e.9.6.6.6.7.>.@.] I x 4 $ @ @ $ # f.f.f.f.f.f.",
"f.f.f.f.f.f.f.f.f.f.f.f.3 0 z Q 1.p.d.a.u.p.a.u.a.a.a.u.u.e.u.u.u.y.0.;.] D f 3 = $ # @ f.f.f.f.f.f.",
"f.f.f.f.f.f.f.f.f.f.f.3 z C ~ #.9.a.s.a.u.a.p.p.p.a.p.y.q.0.0.y.a.p.y.0.=.) D x 7 - @ O f.f.f.f.f.f.",
"f.f.f.f.f.f.f.f.f.f.# 0 C o.6.w.u.a.a.a.p.a.u.a.a.a.u.r.2.=.2.0.y.a.p.y.8.=.` J l 6 # + f.f.f.f.f.f.",
"f.f.f.f.f.f.f.f.f.; 8 z ~ 3.p.a.a.p.p.p.a.u.a.u.u.u.t.0.;.&.-.0.y.p.p.y.q.2.&.( Z a 6 ; f.f.f.f.f.f.",
"f.f.f.f.f.f.f.f.6 z C Q #.e.s.d.a.a.u.p.u.p.a.u.y.0.5.2.2.2.5.r.y.u.e.0.4.;.&.{ U S x a 7 f.f.f.f.f.",
"f.f.f.f.f.f.f.# 0 K o.1.9.u.a.a.u.a.u.a.p.a.a.u.q.2.=.-.5.q.y.u.i.y.5.;.&.%. . ._ ( I v e $ f.f.f.f.",
"f.f.f.f.f.f.; 6 x ^ 7.u.s.p.p.u.a.u.p.p.u.a.p.u.0.=.%.=.8.y.p.a.p.w.4.%. . . . . . .( B r & O f.f.f.",
"f.f.f.f.f.0 z C Q #.e.s.d.a.p.p.p.a.u.a.p.a.a.u.0.=.$.=.0.i.d.d.p.t.4.%.[  . .$.%.%.] D r $ + f.f.f.",
"f.f.f.f.= a K o.,.9.u.a.a.p.p.p.p.u.p.p.p.a.a.u.0.=.$.&.8.u.a.s.p.r.<.%. .[  . .%.$.` B r & O f.f.f.",
"f.f.f.O = d ^ 7.a.a.a.a.p.p.p.p.u.a.i.p.p.u.u.y.5.*.%.&.5.t.u.i.i.q.2.%.{ [ [ ] [ [ R M 9 $ @ f.f.f.",
"f.f.f.o & d ^ 9.s.d.a.u.p.p.p.p.p.a.a.p.p.e.q.7.<.&. .%.;.5.0.0.5.4.-. .[ W I P P P F l 6 $ @ f.f.f.",
"f.f.f.o & d ~ 9.s.d.a.u.u.p.p.a.p.a.a.a.u.q.2.*.X. .} ..&.=.-.-.-.*.%. ._ P v j j c i e ; $ # f.f.f.",
"f.f.f.o & d ^ 9.s.s.u.a.p.p.p.u.u.u.u.p.u.9.;.&......... . . ... .$.$.} _ A j t w w q , - # # f.f.f.",
"f.f.f.o = d ^ 9.s.d.a.p.a.p.u.t.r.q.r.u.u.w.4.-.=.-.-.*.X. .} }  . .$.{ _ U m j u q 1 * $ # $ f.f.f.",
"f.f.f.o = d ^ 9.d.d.a.a.a.a.u.q.2.2.5.t.u.y.r.q.0.q.0.2.*. .} }  . . . .[ / T F c t 1 - $ $ # f.f.f.",
"f.f.f.o & d ~ 6.a.a.p.p.u.u.t.5.&.&.<.w.u.a.u.u.u.u.t.0.-.$.} [ [ { {  . . .[ W A i 2 * * $ # f.f.f.",
"f.f.f.f.= a K ' #.9.e.p.u.w.8.-.%.$.<.w.u.s.a.p.i.y.w.5.-. .] W E E _ { $.$.$.] H j 5 * $ $ # f.f.f.",
"f.f.f.f.f.0 h N Y +.9.u.r.5.=.%. .X.<.q.p.d.s.p.y.8.2.=.&. ./ P Z A R [ $.&.$.[ H j q > $ $ # f.f.f.",
"f.f.f.f.f.f.& 3 z ^ 6.y.5.*.$.} } X.2.q.u.p.p.u.0.;.%.$. .} E n i j F /  . . ./ A i 2 * $ $ # f.f.f.",
"f.f.f.f.f.f.o @ r L -.0.4.%.} { } $.=.5.r.r.r.q.2.*. . .$.} R v t t c P E W E P v t 1 * $ $ f.f.f.f.",
"f.f.f.f.f.f.X @ 8 D X.2.-.$.} { } $.&.;.2.2.2.<.&.$.}  . .} E n t w i c n Z m c u 5 * % $ f.f.f.f.f.",
"f.f.f.f.f.f.O $ 8 B ) ..%.} } }  . . .$.$.$....... . . . .{ E n t 5 q t y y y w 2 - $ $ f.f.f.f.f.f.",
"f.f.f.f.f.f.f.& 7 x J / ` { ..$. .{ ] W W _ ]  . . . .[ ] W F c t 1 1 1 2 2 2 1 > % $ # f.f.f.f.f.f.",
"f.f.f.f.f.f.f.f.< r k n I ] $.%.$.[ W H A P _ } $.$. ._ U A c i w 2 1 1 2 2 2 , * % $ @ f.f.f.f.f.f.",
"f.f.f.f.f.f.f.f.f.- < a B / } $.$._ P c j m R [ $.$.[ E A i w q q 5 2 2 2 5 5 1 > $ @ # f.f.f.f.f.f.",
"f.f.f.f.f.f.f.f.f.f.# 4 x P / ( W R Z i w j F W _ _ W H c q 1 2 5 2 1 1 1 1 1 , > $ $ f.f.f.f.f.f.f.",
"f.f.f.f.f.f.f.f.f.f.f.; r l b M Z Z j w q i c Z F F Z c i q 2 2 5 2 1 > - - - - = $ f.f.f.f.f.f.f.f.",
"f.f.f.f.f.f.f.f.f.f.f.f.< 4 7 r u u t q q q t i i i u t w q 2 5 5 1 > * $ $ & $ $ f.f.f.f.f.f.f.f.f.",
"f.f.f.f.f.f.f.f.f.f.f.f.f.$ $ - , 2 2 5 5 5 5 5 5 5 5 5 2 1 1 1 1 1 * $ $ # $ $ f.f.f.f.f.f.f.f.f.f.",
"f.f.f.f.f.f.f.f.f.f.f.f.f.f.@ $ * - , 1 2 5 2 2 2 2 1 1 , > > > > > = $ @ # $ f.f.f.f.f.f.f.f.f.f.f.",
"f.f.f.f.f.f.f.f.f.f.f.f.f.f.f.$ $ = > 1 2 q 5 5 2 2 1 1 > = $ $ $ % $ f.f.f.f.f.f.f.f.f.f.f.f.f.f.f.",
"f.f.f.f.f.f.f.f.f.f.f.f.f.f.f.f.# $ - , 1 2 2 1 2 2 1 > - $ $ # $ $ f.f.f.f.f.f.f.f.f.f.f.f.f.f.f.f.",
"f.f.f.f.f.f.f.f.f.f.f.f.f.f.f.f.f.# * - > > > > > > > > $ $ # # # f.f.f.f.f.f.f.f.f.f.f.f.f.f.f.f.f.",
"f.f.f.f.f.f.f.f.f.f.f.f.f.f.f.f.f.f.$ * $ * * $ % $ % % $ f.f.f.f.f.f.f.f.f.f.f.f.f.f.f.f.f.f.f.f.f.",
"f.f.f.f.f.f.f.f.f.f.f.f.f.f.f.f.f.f.f.$ $ # $ $ $ $ $ $ f.f.f.f.f.f.f.f.f.f.f.f.f.f.f.f.f.f.f.f.f.f.",
"f.f.f.f.f.f.f.f.f.f.f.f.f.f.f.f.f.f.f.f.# # # # # # # f.f.f.f.f.f.f.f.f.f.f.f.f.f.f.f.f.f.f.f.f.f.f.",
"f.f.f.f.f.f.f.f.f.f.f.f.f.f.f.f.f.f.f.f.f.f.f.f.f.f.f.f.f.f.f.f.f.f.f.f.f.f.f.f.f.f.f.f.f.f.f.f.f.f.",
"f.f.f.f.f.f.f.f.f.f.f.f.f.f.f.f.f.f.f.f.f.f.f.f.f.f.f.f.f.f.f.f.f.f.f.f.f.f.f.f.f.f.f.f.f.f.f.f.f.f.",
"f.f.f.f.f.f.f.f.f.f.f.f.f.f.f.f.f.f.f.f.f.f.f.f.f.f.f.f.f.f.f.f.f.f.f.f.f.f.f.f.f.f.f.f.f.f.f.f.f.f."
};
