/* XPM */
static char *result[] = {
/* columns rows colors chars-per-pixel */
"50 50 152 2 ",
"   c #100E25",
".  c #141127",
"X  c #16132A",
"o  c #19162C",
"O  c #1B192F",
"+  c #1D1C33",
"@  c #1E1F38",
"#  c #1F203A",
"$  c #222136",
"%  c #22233C",
"&  c #28273D",
"*  c #2A293E",
"=  c #232642",
"-  c #252944",
";  c #2D2C41",
":  c #272B48",
">  c #282D4B",
",  c #302F44",
"<  c #2F3047",
"1  c #2C314D",
"2  c #323146",
"3  c #34344A",
"4  c #38374A",
"5  c #3B3A4E",
"6  c #2E3452",
"7  c #313653",
"8  c #343955",
"9  c #3C3D52",
"0  c #353C5A",
"q  c #393F5B",
"w  c #413F52",
"e  c #3B415D",
"r  c #3D4461",
"t  c #454457",
"y  c #43455B",
"u  c #4B4A5D",
"i  c #404764",
"p  c #444A65",
"a  c #4B4E66",
"s  c #464D6B",
"d  c #504F61",
"f  c #4E5065",
"g  c #4B526D",
"h  c #545467",
"j  c #565769",
"k  c #5A5B6C",
"l  c #4D5572",
"z  c #525770",
"x  c #545A73",
"c  c #5C5F73",
"v  c #555D7A",
"b  c #585F79",
"n  c #5E6072",
"m  c #5B637E",
"M  c #626373",
"N  c #63677B",
"B  c #6A6A79",
"V  c #5D6683",
"C  c #5F6885",
"Z  c #606780",
"A  c #626A85",
"S  c #686C81",
"D  c #636D89",
"F  c #686F88",
"G  c #6E7287",
"H  c #67708C",
"J  c #6B748E",
"K  c #737483",
"L  c #787987",
"P  c #70778F",
"I  c #76798A",
"U  c #7C7E8D",
"Y  c #6C7691",
"T  c #6F7995",
"R  c #717B96",
"E  c #737D99",
"W  c #7E808E",
"Q  c #7D8195",
"!  c #77819D",
"~  c #7A839D",
"^  c #7A85A0",
"/  c #7E89A3",
"(  c #80818F",
")  c #838593",
"_  c #868896",
"`  c #81879C",
"'  c #858A9C",
"]  c #8D8F9D",
"[  c #8F919E",
"{  c #818CA6",
"}  c #8A8FA2",
"|  c #838EA9",
" . c #8A91A6",
".. c #8691AC",
"X. c #8A95AD",
"o. c #8F98AE",
"O. c #9295A4",
"+. c #9699A7",
"@. c #9B9EAB",
"#. c #8B96B1",
"$. c #8E9AB4",
"%. c #919CB6",
"&. c #929EB9",
"*. c #9DA0AC",
"=. c #9CA3B5",
"-. c #96A2BB",
";. c #9AA5BE",
":. c #9CA8BF",
">. c #A0A3AF",
",. c #A3A6B2",
"<. c #A6A9B4",
"1. c #A8ABB6",
"2. c #A1A9BB",
"3. c #AFB3BD",
"4. c #9BA7C0",
"5. c #9EA9C1",
"6. c #A2ADC3",
"7. c #A6B0C6",
"8. c #A9B2C6",
"9. c #A7B2C9",
"0. c #ABB5CA",
"q. c #AFB8CC",
"w. c #B1B5C0",
"e. c #B5B9C4",
"r. c #B2BBCD",
"t. c #BABFCA",
"y. c #B5BED0",
"u. c #BFC3CD",
"i. c #B7C0D2",
"p. c #BBC4D4",
"a. c #C1C5CE",
"s. c #C0C7D6",
"d. c #C3C8D3",
"f. c #CACED7",
"g. c #C4CCDA",
"h. c #C8CFDB",
"j. c #CBD2DE",
"k. c #D1D6DE",
"l. c #CED5E1",
"z. c #D1D7E1",
"x. c #D4DAE3",
"c. c #D9DEE6",
"v. c #D6DDE8",
"b. c #D9DFE9",
"n. c #DBE0E7",
"m. c #DDE3EA",
"M. c #E1E6ED",
"N. c #E3E8EE",
"B. c #E6EBF1",
"V. c #E9EEF4",
"C. c #EBF0F6",
"Z. c None",
/* pixels */
"Z.Z.Z.Z.Z.Z.Z.Z.Z.Z.Z.Z.Z.                                                Z.Z.Z.Z.Z.Z.Z.Z.Z.Z.Z.Z.Z.",
"Z.Z.Z.Z.Z.Z.Z.Z.Z.Z.Z.Z.Z.X X X X X X X o o . o . o o o X X X X o o . . X Z.Z.Z.Z.Z.Z.Z.Z.Z.Z.Z.Z.Z.",
"Z.Z.Z.Z.Z.Z.Z.Z.Z.Z.Z.Z.+ + $ $ $ + + + $ $ $ $ + $ + $ + $ + + $ $ + $ $ $ Z.Z.Z.Z.Z.Z.Z.Z.Z.Z.Z.Z.",
"Z.Z.Z.Z.Z.Z.Z.Z.Z.Z.Z.Z.* , * * * , * , * * * * * * * * * 2 * * * * * * * * Z.Z.Z.Z.Z.Z.Z.Z.Z.Z.Z.Z.",
"Z.Z.Z.Z.Z.Z.Z.Z.Z.Z.Z.Z.w w t t t t t t t u t t t t t w t t t t u t t t w 5 Z.Z.Z.Z.Z.Z.Z.Z.Z.Z.Z.Z.",
"Z.Z.Z.Z.Z.Z.Z.Z.Z.Z.Z.w u h k k M M M M M M M M M M M M M M M B M M M k j d w Z.Z.Z.Z.Z.Z.Z.Z.Z.Z.Z.",
"Z.Z.Z.Z.Z.Z.Z.Z.Z.+ * t h B L ( ) ) _ _ ) ) ) ) ) ) ( ) ) ) ) _ ) ) ( L B k u 2 $ Z.Z.Z.Z.Z.Z.Z.Z.Z.",
"Z.Z.Z.Z.Z.Z.Z.Z.. $ 4 d M U [ *.,.<.1.<.,.,.<.,.<.,.,.,.,.,.<.<.1.>.>.O.( B d 4 $ o Z.Z.Z.Z.Z.Z.Z.Z.",
"Z.Z.Z.Z.Z.Z.Z.. O & 5 j B [ 1.t.u.d.d.d.d.a.u.a.a.a.a.a.a.a.d.d.d.a.e.<.] K j 5 & + X Z.Z.Z.Z.Z.Z.Z.",
"Z.Z.Z.Z.Z.Z.+ $ * 4 u M ( *.3.f.k.c.c.v.k.j.k.l.k.k.k.k.k.c.c.c.x.z.d.w.+.L c t 2 $ + o Z.Z.Z.Z.Z.Z.",
"Z.Z.Z.Z.Z.Z., 4 w t k K [ 1.d.k.b.M.m.m.x.x.x.v.c.n.n.m.n.M.M.n.n.x.g.e.@.) N d 9 2 ; % Z.Z.Z.Z.Z.Z.",
"Z.Z.Z.Z.Z.5 t u j M K _ ,.3.f.k.M.M.m.v.z.z.l.x.c.n.M.M.N.M.M.M.b.l.g.e.=.' J c f y q 4 2 Z.Z.Z.Z.Z.",
"Z.Z.+ * w u j B K U [ *.3.a.k.M.M.b.b.l.j.g.g.l.l.b.m.N.M.M.m.c.l.g.p.0.=. .E G m k a y 9 2 & + Z.Z.",
"  X + * w h B U ] @.1.3.a.f.k.c.c.x.l.g.p.y.y.p.g.z.b.b.m.m.x.k.g.p.0.6.=.o.| Q R A b f e 3 & + o . ",
"  X + ; t k L [ <.e.a.f.k.k.n.c.x.l.g.y.q.0.0.r.y.h.z.v.b.x.j.g.t.0.6.;.-.%.X.| ~ R A z y 3 & + o . ",
"  X + ; t k U @.e.f.k.M.N.M.M.c.z.h.p.r.7.6.6.9.y.s.j.z.z.k.g.y.q.7.;.-.&.%.%.o.| ! F c y 3 & + o . ",
"  o $ * t M ( >.a.z.m.B.B.N.M.n.z.h.p.0.6.;.;.6.q.i.g.h.j.g.s.r.9.4.-.-.$.$.&.#./ E C l y 2 & + o X ",
"  o $ * t M _ <.d.c.B.V.V.V.M.n.x.h.y.0.5.;.;.:.7.r.p.s.s.s.i.0.5.4.-.#.#.../ / ! Y m g q ; $ + o X ",
"  . + * t M _ <.d.n.B.C.C.V.N.n.x.g.p.0.6.;.-.;.6.8.r.y.y.y.r.8.4.4.&.#.../ ^ T H m g i 8 ; $ O O X ",
"  . $ * t M ( <.d.c.B.V.C.V.N.n.x.h.p.0.2.;.&.-.;.2.7.0.0.8.8.6.4.4.$.#./ ^ H C b g i 9 < * $ + O o ",
"  . $ * t M ( ,.a.k.B.V.V.B.m.n.x.h.p.q.6.;.-.-.;.;.5.6.6.6.6.5.4.&.$...^ Y C v s e 8 < = % # O O o ",
"  o + , t M ) <.a.k.M.B.B.B.m.c.z.g.p.q.6.;.-.-.-.-.;.4.;.4.4.4.4.&.$./ E H v r e 6 > - % $ + O O O ",
"  . $ * t M ( ,.a.k.M.M.N.m.v.x.l.g.p.r.8.6.5.;.;.&.-.-.&.4.-.;.4.$.&./ E C l r 7 1 = # # # + + O O ",
"  o $ * t M ) <.a.k.n.M.n.v.z.j.g.s.p.r.r.8.6.6.5.;.-.-.&.&.-.-.4.4.$./ E C l r 6 - = # + + + O O O ",
"  o $ * t M ) <.a.z.M.n.v.l.h.p.s.p.p.i.i.y.q.0.6.6.;.-.&.-.-.;.4.&.#...! C l r 1 : # @ + + + O O O ",
"  . + , u M ) <.a.z.c.c.z.g.p.y.t.y.i.p.s.p.p.y.r.6.;.;.-.&.-.;.4.4.$./ E C l r 6 : = # @ + + + O O ",
"  X + * t M ) <.a.z.v.x.h.p.y.0.0.r.y.s.g.h.g.p.y.8.6.;.-.&.-.4.4.&.&./ E C l r 6 : = # + + + O O O ",
"  . + , t M ) ,.u.l.l.l.g.y.9.6.6.0.y.s.h.l.l.g.p.r.6.5.-.-.&.&.4.&.#./ T C l r 6 : = # # @ + O O O ",
"  X + ; t M ( ,.t.h.l.h.p.q.6.5.6.8.y.p.g.l.l.g.p.r.6.4.-.&.%.%.$.#...^ H V s r 6 > = % # + + + O O ",
"  X + ; t k U *.e.s.h.p.i.0.5.4.5.6.q.p.g.j.h.g.p.q.9.4.-.%.#.#.../ ^ T C v s r 7 > = % # # + O O O ",
"  X + ; w k L O.8.p.p.i.y.9.5.4.5.6.0.y.p.g.p.p.y.q.9.4.&.%.../ ^ E Y C V s r 0 6 : : # # + + O O O ",
". X + - 9 j K } 5.r.i.y.0.7.4.4.4.6.9.q.y.i.p.y.r.0.9.4.&.$./ ^ Y C V v l r r 0 6 : = = % + + O O O ",
". o + * 5 h A ` @.6.8.0.9.5.5.4.4.4.6.6.9.9.0.0.9.9.5.4.&.| ^ T C v l i r 0 0 6 6 > = = @ @ + + O O ",
". X + * 5 a N R X.;.2.6.5.4.4.&.-.-.4.4.5.5.4.4.5.4.4.&.$./ E C v s r 0 7 6 6 6 6 : = = # @ @ o O O ",
". X + & 4 p c J { X.%.%.%.%.$.#.&.$.$.&.&.&.&.&.&.&.&.$.| ^ H V g r 0 6 6 > > > : : - = @ @ + o O O ",
". X + & 4 y z A P ~ ~ { / | | / / / / / / / / ..| ../ / ^ T C v p 0 6 > : : : : : - = = # @ + + O O ",
"o o + & 2 t a v Z F J J T Y Y E E T E T T T T E E E E E Y C V s r 7 > > : - = = - = = % $ + + + O O ",
"Z.Z.+ & ; 9 y a j z x b V V C C C D C C C C C C C C C C V V l r 0 7 > > - = = = = % % $ @ @ + + Z.Z.",
"Z.Z.Z.Z.Z.3 9 q q y i p s g g l l l l l l l l l l v l l s s r r 0 6 > > - = = = % # $ # + Z.Z.Z.Z.Z.",
"Z.Z.Z.Z.Z.Z.; ; < 3 3 4 8 q q e r r r r r r r r r r r r 0 0 0 0 6 6 > > - = # # # + + + Z.Z.Z.Z.Z.Z.",
"Z.Z.Z.Z.Z.Z.$ $ % % = ; ; 1 6 6 6 7 7 7 7 7 7 6 7 7 7 6 7 6 6 6 1 > > > - = $ # + + + + Z.Z.Z.Z.Z.Z.",
"Z.Z.Z.Z.Z.Z.Z.+ O + + @ % = - : > > > > > > > > > > > > > : > > > > > - = % # @ + + O Z.Z.Z.Z.Z.Z.Z.",
"Z.Z.Z.Z.Z.Z.Z.Z.o o O + @ # % = = = = = = = = = = = = = = = = = - - - = = % $ + O O Z.Z.Z.Z.Z.Z.Z.Z.",
"Z.Z.Z.Z.Z.Z.Z.Z.Z.X o + + @ # # % % # @ = # # # # = % # # = = % % = % = % $ # + O Z.Z.Z.Z.Z.Z.Z.Z.Z.",
"Z.Z.Z.Z.Z.Z.Z.Z.Z.Z.Z.+ + @ @ @ @ @ @ @ @ @ @ @ @ @ @ @ $ # # % $ % $ % $ # + Z.Z.Z.Z.Z.Z.Z.Z.Z.Z.Z.",
"Z.Z.Z.Z.Z.Z.Z.Z.Z.Z.Z.Z.+ + + + + @ @ + + + @ + + @ + + + + @ + # + + @ + + Z.Z.Z.Z.Z.Z.Z.Z.Z.Z.Z.Z.",
"Z.Z.Z.Z.Z.Z.Z.Z.Z.Z.Z.Z.+ + + + + + + + + + + + + + + + + + + + + + + + + + Z.Z.Z.Z.Z.Z.Z.Z.Z.Z.Z.Z.",
"Z.Z.Z.Z.Z.Z.Z.Z.Z.Z.Z.Z.o + o + O + O O + O O + O O + + O + O O o + + + O + Z.Z.Z.Z.Z.Z.Z.Z.Z.Z.Z.Z.",
"Z.Z.Z.Z.Z.Z.Z.Z.Z.Z.Z.Z.Z.+ + O O O O O O O O + O O O O O O O O + o O O O Z.Z.Z.Z.Z.Z.Z.Z.Z.Z.Z.Z.Z.",
"Z.Z.Z.Z.Z.Z.Z.Z.Z.Z.Z.Z.Z.o O O O O O o O O O O O O O O O O O O O O O O O Z.Z.Z.Z.Z.Z.Z.Z.Z.Z.Z.Z.Z."
};
